<svg id="Layer_1" data-name="Layer 1" xmlns="http://www.w3.org/2000/svg" viewBox="0 0 1750 1750"><defs><style>.cls-1{fill:#f5f3e3;}.cls-2{fill:#015566;}.cls-3{fill:#004751;}.cls-4{fill:#fcb913;}.cls-5{fill:#fff;}.cls-6{fill:#dd9b0a;}.cls-7{fill:#f59060;}.cls-8{fill:#090909;}.cls-9{fill:#fc6d6d;}.cls-10{fill:#6445f1;}.cls-11{fill:#ff4655;}.cls-12{fill:#6595f7;}.cls-13{fill:#080808;}</style></defs><g id="Programmer"><g id="Background"><path class="cls-1" d="M859.873,849.858c32.959-58.866,11.594-128.868-3.606-193.234a935.416,935.416,0,0,1-24.8-191.509c-.766-30.562.5-62.855,18.532-88.874,17.643-25.463,48.528-40.876,78.442-54.512,117.243-53.444,256.292-96.834,377.984-51.956,84.646,31.215,147.252,105.419,157.338,186.485S1431,621.925,1356.08,668.872c-41.472,25.987-91.6,41.131-128,72.57-59.86,51.706-65.766,145.067-12.8,202.428,39.195,42.452,100.466,62.144,153.614,90.092,81.373,42.791,147.271,108.511,185.826,185.325,22.281,44.39,34.437,99.174,3.914,139.492-50.131,66.219-167.635,41.935-240.291-4.9S1174.793,1241.7,1085.182,1245.3c-54.843,2.2-103.2,30.658-150.768,55.049A1161.58,1161.58,0,0,1,646.34,1402.275c-76.947,16.337-157.921,25.031-234.933,8.939s-149.756-60.4-179.551-125.639c-39.794-87.121,8.469-192.876,94.129-247.924C468.689,945.945,767.968,1014,859.873,849.858Z"/><path class="cls-1" d="M695.747,598.666c-5.119,61.945-30.326,125-82.573,166.168-67.389,53.1-164.788,60.5-254.762,62.167-76.5,1.416-132.484-1.657-184.621-23.884-50.238-21.418-63.154-43.091-66.831-49.98-21.494-40.279-4.5-94.928,31.924-120.428,13.7-9.591,41.421-13.388,96.3-20.588,60.248-7.906,85.071-7.143,126.854-20.912,44.893-14.794,53.335-27.9,55.929-32.619,10.723-19.515-1.034-36.711-11.359-70.254-8.736-28.383-29.863-97.017-.213-149.5,5.892-10.429,25.766-41.418,63.694-53.525,76.261-24.343,159.126,48.845,164.917,54.093C728.3,423.948,699.159,557.382,695.747,598.666Z"/></g><g id="Table"><rect class="cls-2" x="246.196" y="1207.406" width="1183.77" height="391.426"/><rect class="cls-3" x="201.214" y="1207.406" width="1273.733" height="52.642" rx="26.321"/></g><g id="Human"><path class="cls-4" d="M1166.505,978.39l-60.24,25.455-2.219.914-102.207,43.18v160.092H652.105l-4.963-125.306-.091-2.356-1.281-32.43L628.5,1040.62,625.9,1039.5l-36.227-15.346h-.023l-5.512-2.355-14.843-6.29-5.946-2.515-42.9-18.182-2.722-1.167-34.969-14.82-3.43-1.463.251-.481L513.6,909.436l2.378-4.712,23.534-46.632,1.052-2.1,15.69-31.1,1.12-2.2,7.136-14.156q3.464-6.863,7.5-13.334c.388-.663.8-1.281,1.213-1.921,19.1-29.892,47.135-53.7,80.5-68.5.892-.389,1.784-.8,2.7-1.166a192.677,192.677,0,0,1,19.143-7,593.33,593.33,0,0,1,107.993-22.641,467.624,467.624,0,0,1,99.92-.755,378.1,378.1,0,0,1,77.234,16.1,184.688,184.688,0,0,1,70.784,41.944c.663.618,1.327,1.258,1.967,1.9a180.664,180.664,0,0,1,21.2,24.952c.458.663.915,1.3,1.349,1.967a175.782,175.782,0,0,1,12.328,21.041l5.237,9.445,1.167,2.127,30.372,54.843,5.259,9.514,30.122,54.363,1.165,2.127,17.131,30.944,1.166,2.1Z"/><path class="cls-5" d="M1033.469,753.162a30.469,30.469,0,0,1-8.1,1.029c-14.224,0-21.36-8.324-28.267-16.4-6.861-8.027-13.334-15.62-26.507-15.62s-19.668,7.593-26.529,15.62c-6.907,8.074-14.043,16.4-28.268,16.4s-21.362-8.324-28.269-16.4c-6.861-8.027-13.355-15.62-26.506-15.62-13.173,0-19.669,7.593-26.53,15.62-6.907,8.074-14.043,16.4-28.267,16.4s-21.361-8.324-28.269-16.4c-6.883-8.027-13.356-15.62-26.529-15.62s-19.668,7.593-26.529,15.62c-6.907,8.074-14.043,16.4-28.268,16.4s-21.362-8.324-28.269-16.4c-4.413-5.145-8.668-10.131-14.636-13.013.892-.389,1.784-.8,2.7-1.166,5.534,3.179,9.65,7.982,13.676,12.693,6.884,8.027,13.356,15.6,26.53,15.6s19.668-7.57,26.529-15.6c6.908-8.073,14.043-16.421,28.268-16.421s21.361,8.348,28.268,16.421c6.861,8.027,13.356,15.6,26.53,15.6s19.645-7.57,26.53-15.6c6.883-8.073,14.041-16.421,28.267-16.421,14.2,0,21.338,8.348,28.245,16.421,6.861,8.027,13.356,15.6,26.53,15.6s19.645-7.57,26.529-15.6c6.907-8.073,14.043-16.421,28.268-16.421s21.361,8.348,28.244,16.421c6.885,8.027,13.358,15.6,26.53,15.6a27.094,27.094,0,0,0,6.13-.64C1032.165,751.882,1032.829,752.522,1033.469,753.162Z"/><path class="cls-5" d="M1056.018,780.081c-.8.892-1.578,1.806-2.378,2.721-6.884,8.074-14.042,16.4-28.268,16.4s-21.36-8.324-28.267-16.4c-6.861-8.027-13.334-15.62-26.507-15.62s-19.668,7.593-26.529,15.62c-6.907,8.074-14.043,16.4-28.268,16.4s-21.362-8.324-28.269-16.4c-6.861-8.027-13.355-15.62-26.506-15.62-13.173,0-19.669,7.593-26.53,15.62-6.907,8.074-14.043,16.4-28.267,16.4s-21.361-8.324-28.269-16.4c-6.883-8.027-13.356-15.62-26.529-15.62s-19.668,7.593-26.529,15.62c-6.907,8.074-14.043,16.4-28.268,16.4s-21.362-8.324-28.269-16.4c-6.861-8.027-13.355-15.62-26.528-15.62-13.151,0-19.647,7.593-26.508,15.62-6.907,8.074-14.043,16.4-28.267,16.4a28.18,28.18,0,0,1-15.049-4c.388-.663.8-1.281,1.213-1.921a26.127,26.127,0,0,0,13.836,3.636c13.172,0,19.645-7.57,26.53-15.6,6.883-8.073,14.019-16.421,28.245-16.421s21.36,8.348,28.267,16.421c6.884,8.027,13.356,15.6,26.53,15.6s19.668-7.57,26.529-15.6c6.908-8.073,14.043-16.421,28.268-16.421s21.361,8.348,28.268,16.421c6.861,8.027,13.356,15.6,26.53,15.6s19.645-7.57,26.53-15.6c6.883-8.073,14.041-16.421,28.267-16.421,14.2,0,21.338,8.348,28.245,16.421,6.861,8.027,13.356,15.6,26.53,15.6s19.645-7.57,26.529-15.6c6.907-8.073,14.043-16.421,28.268-16.421s21.361,8.348,28.244,16.421c6.885,8.027,13.358,15.6,26.53,15.6s19.669-7.57,26.53-15.6c.915-1.075,1.829-2.15,2.767-3.2C1055.127,778.777,1055.584,779.418,1056.018,780.081Z"/><path class="cls-5" d="M1074.75,812.694c-9.675,1.738-15.232,8.279-21.11,15.117-6.884,8.051-14.042,16.4-28.268,16.4s-21.36-8.347-28.267-16.4c-6.861-8.027-13.334-15.62-26.507-15.62s-19.668,7.593-26.529,15.62c-6.907,8.051-14.043,16.4-28.268,16.4s-21.362-8.347-28.269-16.4c-6.861-8.027-13.355-15.62-26.506-15.62-13.173,0-19.669,7.593-26.53,15.62-6.907,8.051-14.043,16.4-28.267,16.4s-21.361-8.347-28.269-16.4c-6.883-8.027-13.356-15.62-26.529-15.62s-19.668,7.593-26.529,15.62c-6.907,8.051-14.043,16.4-28.268,16.4s-21.362-8.347-28.269-16.4c-6.861-8.027-13.355-15.62-26.528-15.62-13.151,0-19.647,7.593-26.508,15.62-6.907,8.051-14.043,16.4-28.267,16.4s-21.361-8.347-28.268-16.4c-.846-.983-1.693-1.967-2.538-2.927l1.12-2.2c1.075,1.19,2.1,2.425,3.156,3.637,6.861,8.027,13.357,15.6,26.53,15.6s19.645-7.57,26.53-15.6c6.883-8.074,14.019-16.421,28.245-16.421s21.36,8.347,28.267,16.421c6.884,8.027,13.356,15.6,26.53,15.6s19.668-7.57,26.529-15.6c6.908-8.074,14.043-16.421,28.268-16.421s21.361,8.347,28.268,16.421c6.861,8.027,13.356,15.6,26.53,15.6s19.645-7.57,26.53-15.6c6.883-8.074,14.041-16.421,28.267-16.421,14.2,0,21.338,8.347,28.245,16.421,6.861,8.027,13.356,15.6,26.53,15.6s19.645-7.57,26.529-15.6c6.907-8.074,14.043-16.421,28.268-16.421s21.361,8.347,28.244,16.421c6.885,8.027,13.358,15.6,26.53,15.6s19.669-7.57,26.53-15.6c5.74-6.724,11.664-13.631,21.681-15.758Z"/><path class="cls-5" d="M1110.381,877.051c-1.257-1.4-2.469-2.813-3.681-4.231-6.862-8.027-13.356-15.62-26.53-15.62s-19.646,7.593-26.53,15.62c-6.884,8.073-14.042,16.4-28.268,16.4s-21.36-8.325-28.267-16.4c-6.861-8.027-13.334-15.62-26.507-15.62s-19.668,7.593-26.529,15.62c-6.907,8.073-14.043,16.4-28.268,16.4s-21.362-8.325-28.269-16.4c-6.861-8.027-13.355-15.62-26.506-15.62-13.173,0-19.669,7.593-26.53,15.62-6.907,8.073-14.043,16.4-28.267,16.4s-21.361-8.325-28.269-16.4c-6.883-8.027-13.356-15.62-26.529-15.62s-19.668,7.593-26.529,15.62c-6.907,8.073-14.043,16.4-28.268,16.4s-21.362-8.325-28.269-16.4c-6.861-8.027-13.355-15.62-26.528-15.62-13.151,0-19.647,7.593-26.508,15.62-6.907,8.073-14.043,16.4-28.267,16.4s-21.361-8.325-28.268-16.4c-5.466-6.4-10.7-12.533-19.28-14.728l1.052-2.1c8.988,2.515,14.546,9.01,19.966,15.346,6.861,8.027,13.357,15.6,26.53,15.6s19.645-7.57,26.53-15.6c6.883-8.074,14.019-16.421,28.245-16.421s21.36,8.347,28.267,16.421c6.884,8.027,13.356,15.6,26.53,15.6s19.668-7.57,26.529-15.6c6.908-8.074,14.043-16.421,28.268-16.421s21.361,8.347,28.268,16.421c6.861,8.027,13.356,15.6,26.53,15.6s19.645-7.57,26.53-15.6c6.883-8.074,14.041-16.421,28.267-16.421,14.2,0,21.338,8.347,28.245,16.421,6.861,8.027,13.356,15.6,26.53,15.6s19.645-7.57,26.529-15.6c6.907-8.074,14.043-16.421,28.268-16.421s21.361,8.347,28.244,16.421c6.885,8.027,13.358,15.6,26.53,15.6s19.669-7.57,26.53-15.6c6.907-8.074,14.043-16.421,28.268-16.421,11.984,0,18.959,5.923,24.952,12.624Z"/><path class="cls-5" d="M1141.668,933.541a32.129,32.129,0,0,1-6.7.686c-14.225,0-21.361-8.348-28.267-16.4-6.862-8.028-13.356-15.62-26.53-15.62s-19.646,7.592-26.53,15.62c-6.884,8.05-14.042,16.4-28.268,16.4s-21.36-8.348-28.267-16.4c-6.861-8.028-13.334-15.62-26.507-15.62s-19.668,7.592-26.529,15.62c-6.907,8.05-14.043,16.4-28.268,16.4s-21.362-8.348-28.269-16.4c-6.861-8.028-13.355-15.62-26.506-15.62-13.173,0-19.669,7.592-26.53,15.62-6.907,8.05-14.043,16.4-28.267,16.4s-21.361-8.348-28.269-16.4c-6.883-8.028-13.356-15.62-26.529-15.62s-19.668,7.592-26.529,15.62c-6.907,8.05-14.043,16.4-28.268,16.4s-21.362-8.348-28.269-16.4c-6.861-8.028-13.355-15.62-26.528-15.62-13.151,0-19.647,7.592-26.508,15.62-6.907,8.05-14.043,16.4-28.267,16.4s-21.361-8.348-28.268-16.4c-6.861-8.028-13.357-15.62-26.53-15.62a26.463,26.463,0,0,0-18.662,7.227l2.378-4.712a28.106,28.106,0,0,1,16.284-4.8c14.225,0,21.361,8.347,28.268,16.421,6.861,8.027,13.357,15.6,26.53,15.6s19.645-7.57,26.53-15.6c6.883-8.074,14.019-16.421,28.245-16.421s21.36,8.347,28.267,16.421c6.884,8.027,13.356,15.6,26.53,15.6s19.668-7.57,26.529-15.6c6.908-8.074,14.043-16.421,28.268-16.421s21.361,8.347,28.268,16.421c6.861,8.027,13.356,15.6,26.53,15.6s19.645-7.57,26.53-15.6c6.883-8.074,14.041-16.421,28.267-16.421,14.2,0,21.338,8.347,28.245,16.421,6.861,8.027,13.356,15.6,26.53,15.6s19.645-7.57,26.529-15.6c6.907-8.074,14.043-16.421,28.268-16.421s21.361,8.347,28.244,16.421c6.885,8.027,13.358,15.6,26.53,15.6s19.669-7.57,26.53-15.6c6.907-8.074,14.043-16.421,28.268-16.421s21.384,8.347,28.267,16.421c6.885,8.027,13.357,15.6,26.53,15.6a28.1,28.1,0,0,0,5.536-.526Z"/><path class="cls-5" d="M1159.965,966.589c-6.015,6.7-12.991,12.647-25,12.647-14.225,0-21.361-8.325-28.267-16.4-6.862-8.027-13.356-15.62-26.53-15.62s-19.646,7.593-26.53,15.62c-6.884,8.073-14.042,16.4-28.268,16.4s-21.36-8.325-28.267-16.4c-6.861-8.027-13.334-15.62-26.507-15.62s-19.668,7.593-26.529,15.62c-6.907,8.073-14.043,16.4-28.268,16.4s-21.362-8.325-28.269-16.4c-6.861-8.027-13.355-15.62-26.506-15.62-13.173,0-19.669,7.593-26.53,15.62-6.907,8.073-14.043,16.4-28.267,16.4s-21.361-8.325-28.269-16.4c-6.883-8.027-13.356-15.62-26.529-15.62s-19.668,7.593-26.529,15.62c-6.907,8.073-14.043,16.4-28.268,16.4s-21.362-8.325-28.269-16.4c-6.861-8.027-13.355-15.62-26.528-15.62-13.151,0-19.647,7.593-26.508,15.62-6.907,8.073-14.043,16.4-28.267,16.4s-21.361-8.325-28.268-16.4c-6.861-8.027-13.357-15.62-26.53-15.62s-19.668,7.593-26.53,15.62c-5.992,7-12.166,14.2-22.984,15.986l-3.43-1.463.251-.481c11.778-.754,17.93-7.936,24.426-15.529,6.907-8.073,14.041-16.421,28.267-16.421s21.361,8.348,28.268,16.421c6.861,8.028,13.357,15.6,26.53,15.6s19.645-7.57,26.53-15.6c6.883-8.073,14.019-16.421,28.245-16.421s21.36,8.348,28.267,16.421c6.884,8.028,13.356,15.6,26.53,15.6s19.668-7.57,26.529-15.6c6.908-8.073,14.043-16.421,28.268-16.421s21.361,8.348,28.268,16.421c6.861,8.028,13.356,15.6,26.53,15.6s19.645-7.57,26.53-15.6c6.883-8.073,14.041-16.421,28.267-16.421,14.2,0,21.338,8.348,28.245,16.421,6.861,8.028,13.356,15.6,26.53,15.6s19.645-7.57,26.529-15.6c6.907-8.073,14.043-16.421,28.268-16.421s21.361,8.348,28.244,16.421c6.885,8.028,13.358,15.6,26.53,15.6s19.669-7.57,26.53-15.6c6.907-8.073,14.043-16.421,28.268-16.421s21.384,8.348,28.267,16.421c6.885,8.028,13.357,15.6,26.53,15.6,11.435,0,17.84-5.695,23.832-12.464Z"/><path class="cls-5" d="M1106.265,1003.845l-2.219.914c-6.014-6.792-12.418-12.533-23.876-12.533-13.173,0-19.646,7.593-26.53,15.621-6.884,8.05-14.042,16.4-28.268,16.4s-21.36-8.348-28.267-16.4c-6.861-8.028-13.334-15.621-26.507-15.621s-19.668,7.593-26.529,15.621c-6.907,8.05-14.043,16.4-28.268,16.4s-21.362-8.348-28.269-16.4c-6.861-8.028-13.355-15.621-26.506-15.621-13.173,0-19.669,7.593-26.53,15.621-6.907,8.05-14.043,16.4-28.267,16.4s-21.361-8.348-28.269-16.4c-6.883-8.028-13.356-15.621-26.529-15.621s-19.668,7.593-26.529,15.621c-6.907,8.05-14.043,16.4-28.268,16.4s-21.362-8.348-28.269-16.4c-6.861-8.028-13.355-15.621-26.528-15.621-13.151,0-19.647,7.593-26.508,15.621-6.471,7.547-13.15,15.346-25.66,16.306h-.023c-.823.069-1.692.092-2.584.092-11.161,0-17.976-5.146-23.717-11.252-1.578-1.67-3.064-3.408-4.551-5.146-6.861-8.028-13.357-15.621-26.53-15.621a26.3,26.3,0,0,0-11.823,2.585l-2.722-1.167a28.471,28.471,0,0,1,14.545-3.705c14.225,0,21.361,8.348,28.268,16.421a72.43,72.43,0,0,0,8.759,9.148,25.769,25.769,0,0,0,14.843,6.29,24.4,24.4,0,0,0,2.928.16c13.172,0,19.645-7.57,26.53-15.6,6.883-8.073,14.019-16.421,28.245-16.421s21.36,8.348,28.267,16.421c6.884,8.028,13.356,15.6,26.53,15.6s19.668-7.57,26.529-15.6c6.908-8.073,14.043-16.421,28.268-16.421s21.361,8.348,28.268,16.421c6.861,8.028,13.356,15.6,26.53,15.6s19.645-7.57,26.53-15.6c6.883-8.073,14.041-16.421,28.267-16.421,14.2,0,21.338,8.348,28.245,16.421,6.861,8.028,13.356,15.6,26.53,15.6s19.645-7.57,26.529-15.6c6.907-8.073,14.043-16.421,28.268-16.421s21.361,8.348,28.244,16.421c6.885,8.028,13.358,15.6,26.53,15.6s19.669-7.57,26.53-15.6c6.907-8.073,14.043-16.421,28.268-16.421C1092.909,989.939,1099.976,996.64,1106.265,1003.845Z"/><path class="cls-5" d="M1001.839,1054.8v3.385c-1.646-1.739-3.2-3.545-4.734-5.329-6.861-8.028-13.334-15.621-26.507-15.621s-19.668,7.593-26.529,15.621c-6.907,8.05-14.043,16.4-28.268,16.4s-21.362-8.348-28.269-16.4c-6.861-8.028-13.355-15.621-26.506-15.621-13.173,0-19.669,7.593-26.53,15.621-6.907,8.05-14.043,16.4-28.267,16.4s-21.361-8.348-28.269-16.4c-6.883-8.028-13.356-15.621-26.529-15.621s-19.668,7.593-26.529,15.621c-6.907,8.05-14.043,16.4-28.268,16.4s-21.362-8.348-28.269-16.4c-6.861-8.028-13.355-15.621-26.528-15.621a25.927,25.927,0,0,0-13.334,3.385L625.9,1039.5a28.32,28.32,0,0,1,15.941-4.551c14.224,0,21.36,8.348,28.267,16.421,6.884,8.028,13.356,15.6,26.53,15.6s19.668-7.57,26.529-15.6c6.908-8.073,14.043-16.421,28.268-16.421s21.361,8.348,28.268,16.421c6.861,8.028,13.356,15.6,26.53,15.6s19.645-7.57,26.53-15.6c6.883-8.073,14.041-16.421,28.267-16.421,14.2,0,21.338,8.348,28.245,16.421,6.861,8.028,13.356,15.6,26.53,15.6s19.645-7.57,26.529-15.6c6.907-8.073,14.043-16.421,28.268-16.421s21.361,8.348,28.244,16.421C999.85,1052.536,1000.832,1053.679,1001.839,1054.8Z"/><path class="cls-5" d="M1001.839,1099.809v3.384c-1.646-1.738-3.2-3.544-4.734-5.328-6.861-8.028-13.334-15.621-26.507-15.621s-19.668,7.593-26.529,15.621c-6.907,8.05-14.043,16.4-28.268,16.4s-21.362-8.348-28.269-16.4c-6.861-8.028-13.355-15.621-26.506-15.621-13.173,0-19.669,7.593-26.53,15.621-6.907,8.05-14.043,16.4-28.267,16.4s-21.361-8.348-28.269-16.4c-6.883-8.028-13.356-15.621-26.529-15.621s-19.668,7.593-26.529,15.621c-6.907,8.05-14.043,16.4-28.268,16.4s-21.362-8.348-28.269-16.4c-5.877-6.861-11.479-13.425-21.223-15.14l-.091-2.356c10.863,1.761,17.039,8.988,23.053,16.009,6.884,8.028,13.356,15.6,26.53,15.6s19.668-7.57,26.529-15.6c6.908-8.073,14.043-16.421,28.268-16.421s21.361,8.348,28.268,16.421c6.861,8.028,13.356,15.6,26.53,15.6s19.645-7.57,26.53-15.6c6.883-8.073,14.041-16.421,28.267-16.421,14.2,0,21.338,8.348,28.245,16.421,6.861,8.028,13.356,15.6,26.53,15.6s19.645-7.57,26.529-15.6c6.907-8.073,14.043-16.421,28.268-16.421s21.361,8.348,28.244,16.421C999.85,1097.545,1000.832,1098.688,1001.839,1099.809Z"/><polygon class="cls-6" points="645.77 1047.939 467.903 973.238 486.964 934.227 645.77 1007.092 645.77 1047.939"/><polygon class="cls-6" points="1001.839 1047.939 1180.104 972.486 1157.936 932.283 1002.427 999.915 1001.839 1047.939"/><path class="cls-7" d="M825.75,760.886c-1.054-.2-2.108-.418-3.118-.681a45.056,45.056,0,0,1-28.39-21.429,45.9,45.9,0,0,1-6.015-26.7l4.391-55.286h80.053l.724,6.3,5.511,47.184C882.463,740.642,855.786,766.594,825.75,760.886Z"/><path class="cls-8" d="M873.4,663.092v.022s-32.364,49.4-74.234,16.95c0,0-6.543,25.228-4.919,58.712a45.9,45.9,0,0,1-6.015-26.7l4.391-55.286h80.053Z"/><path class="cls-7" d="M906.955,566.937c-4.323,42.469-18.994,107.233-68.066,115.089a31.621,31.621,0,0,1-12.426-.515c-17.207-4.174-58.72-24.092-63.084-119.141A81.4,81.4,0,0,1,800.1,490.216c18.272-11.918,42.318-17.7,69.75-.014A81.352,81.352,0,0,1,906.955,566.937Z"/><path class="cls-8" d="M831.738,626.743a9.137,9.137,0,0,0,2.715-.456,1.715,1.715,0,0,0-1.024-3.274c-2.257.707-2.921-.013-3.14-.249-3.457-3.728,1.8-22.547,6.637-34.72a1.715,1.715,0,0,0-3.187-1.267c-2.08,5.231-12.141,31.661-5.965,38.319A5.19,5.19,0,0,0,831.738,626.743Z"/><ellipse class="cls-9" cx="872.569" cy="612.979" rx="15.059" ry="8.382" transform="matrix(0.998, -0.066, 0.066, 0.998, -38.815, 59.355)"/><path class="cls-8" d="M884.835,572.344a42.47,42.47,0,0,0-7.99-3.007,38.749,38.749,0,0,0-8.645-1.328,27.711,27.711,0,0,0-8.982,1.246,23.817,23.817,0,0,0-7.859,4.425,2.281,2.281,0,0,0-.217,3.481,3.013,3.013,0,0,0,3.91.194c.035-.028.069-.056.1-.085l.194-.173a18.1,18.1,0,0,1,5.722-3.725,22.272,22.272,0,0,1,7.134-1.423,34.366,34.366,0,0,1,7.643.716,39.622,39.622,0,0,1,7.375,2.256l.084.035a1.75,1.75,0,0,0,2.208-.691A1.4,1.4,0,0,0,884.835,572.344Z"/><ellipse class="cls-8" cx="865.728" cy="591.802" rx="6.352" ry="4.176" transform="translate(205.941 1406.906) rotate(-85.368)"/><ellipse class="cls-9" cx="799.486" cy="612.979" rx="8.382" ry="15.059" transform="translate(134.721 1369.952) rotate(-86.189)"/><path class="cls-8" d="M787.219,572.344a42.454,42.454,0,0,1,7.991-3.007,38.74,38.74,0,0,1,8.645-1.328,27.719,27.719,0,0,1,8.982,1.246,23.837,23.837,0,0,1,7.859,4.425,2.281,2.281,0,0,1,.216,3.481,3.013,3.013,0,0,1-3.91.194c-.035-.028-.068-.056-.1-.085l-.194-.173a18.081,18.081,0,0,0-5.722-3.725,22.267,22.267,0,0,0-7.134-1.423,34.352,34.352,0,0,0-7.642.716,39.622,39.622,0,0,0-7.375,2.256l-.084.035a1.75,1.75,0,0,1-2.208-.691A1.4,1.4,0,0,1,787.219,572.344Z"/><ellipse class="cls-8" cx="806.326" cy="591.802" rx="4.176" ry="6.352" transform="translate(-45.161 67.054) rotate(-4.632)"/><path class="cls-7" d="M767.463,568.1h0a19.155,19.155,0,0,0-18.695,23.325l3.4,15.266a19.154,19.154,0,0,0,18.7,14.986h4.9S784.215,584.187,767.463,568.1Z"/><path class="cls-7" d="M904.238,568.1h0a19.156,19.156,0,0,1,18.7,23.325l-3.4,15.266a19.155,19.155,0,0,1-18.7,14.986h-4.9S887.486,584.187,904.238,568.1Z"/><path class="cls-8" d="M833.844,652.812c13.207,0,23.624-9.371,24.155-9.857l-2.315-2.531c-.145.131-14.591,13.082-29.863,7.555l-1.168,3.226A26.857,26.857,0,0,0,833.844,652.812Z"/><path class="cls-8" d="M763.722,568.465l5.581,31.024s10.233-24.348,10.233-51.872c42.369,9.9,76.613,8.2,98.855,5.176,23.5-3.2,38.23-5.413,49.6-17.284,26.4-27.575,16.178-87.961-6.472-96.836-15.124-5.926-27.147,14.5-70.177,31.459a228.181,228.181,0,0,1-65.753,15.029,25.72,25.72,0,0,0-12.126,3.519C756.6,498.855,752.9,530.925,763.722,568.465Z"/><path class="cls-8" d="M910.012,545l-8.128,54.489S891.4,573.377,892.1,547.264,910.012,545,910.012,545Z"/><path class="cls-8" d="M761.691,609.761l2.816-1.959c-8.211-11.8-8.331-17.979-6.985-21.088,1.579-3.646,5.645-4.282,5.817-4.307l-.472-3.4c-.248.033-6.1.889-8.472,6.294C751.9,590.991,754.353,599.219,761.691,609.761Z"/><path class="cls-8" d="M910.01,609.761c7.339-10.542,9.793-18.77,7.3-24.458-2.373-5.4-8.224-6.261-8.472-6.294l-.471,3.4c.172.025,4.237.661,5.816,4.307,1.346,3.109,1.227,9.291-6.984,21.088Z"/><path class="cls-7" d="M1157.1,982.349l35.312,111.6c18.465,58.357-27.665,117.078-91.974,117.078H786.859l11.493-68.773c3.283-19.646,23.84-32.245,44.1-27.03l66.435,17.1,90.943-18.653,2.6-65.714Z"/><rect class="cls-8" x="998.075" y="1098.144" width="111.052" height="3.339" transform="translate(-241.252 297.928) rotate(-14.46)"/><polygon class="cls-8" points="1002.427 1047.956 1161.237 995.413 1157.104 982.349 1002.427 1047.956"/><path class="cls-7" d="M491.1,982.349l-35.312,111.6c-18.465,58.357,27.665,117.078,91.974,117.078H861.343l-11.493-68.773c-3.284-19.646-23.84-32.245-44.1-27.03l-66.435,17.1L648.37,1113.67l-2.6-65.714Z"/><rect class="cls-8" x="592.931" y="1044.287" width="3.339" height="111.052" transform="translate(-618.801 1401.137) rotate(-75.549)"/><polygon class="cls-8" points="645.775 1047.956 486.964 995.413 491.098 982.349 645.775 1047.956"/><rect class="cls-8" x="644.105" y="850.572" width="3.34" height="197.384"/><rect class="cls-8" x="1000.757" y="850.572" width="3.34" height="197.384"/><path class="cls-8" d="M863.012,1211.027h-3.339c0-55.564-12.093-78.226-22.239-87.453-7.646-6.953-14.293-6.412-14.36-6.4l-.316-3.323c.334-.031,8.2-.678,16.923,7.256C850.325,1130.784,863.012,1154.242,863.012,1211.027Z"/><path class="cls-2" d="M804,621.2c-14.656,0-26.579-13.189-26.579-29.4S789.343,562.4,804,562.4s26.578,13.189,26.578,29.4S818.655,621.2,804,621.2Zm0-53.542c-11.755,0-21.319,10.829-21.319,24.141s9.564,24.14,21.319,24.14,21.318-10.829,21.318-24.14S815.754,567.661,804,567.661Z"/><path class="cls-2" d="M868.055,621.2c-14.655,0-26.578-13.189-26.578-29.4s11.923-29.4,26.578-29.4,26.58,13.189,26.58,29.4S882.712,621.2,868.055,621.2Zm0-53.542c-11.754,0-21.318,10.829-21.318,24.141s9.564,24.14,21.318,24.14,21.32-10.829,21.32-24.14S879.811,567.661,868.055,567.661Z"/><path class="cls-2" d="M843.331,592.086c-8.471-2.941-14.048-.254-14.281-.139l-2.4-4.681c.308-.161,7.686-3.873,18.4-.149Z"/><rect class="cls-2" x="887.423" y="571.192" width="21.959" height="5.261" transform="translate(-161.243 690.227) rotate(-38.836)"/><rect class="cls-2" x="770.333" y="563.502" width="5.261" height="22.17" transform="matrix(0.552, -0.834, 0.834, 0.552, -132.935, 901.649)"/><polygon class="cls-6" points="791.303 673.35 767.174 695.947 810.759 782.048 830.737 761.679 791.303 673.35"/><polygon class="cls-6" points="874.593 673.35 830.737 761.679 852.665 782.048 899.009 695.142 874.593 673.35"/><rect class="cls-8" x="653.107" y="935.997" width="352.158" height="3.507" transform="translate(-115.917 1758.548) rotate(-89.489)"/></g><g id="Popup_2" data-name="Popup 2"><path class="cls-10" d="M646.074,627.148H247.048c-18.621,0-33.769-12.512-33.769-27.891v-420.2c0-15.379,15.148-27.891,33.769-27.891H646.074c18.621,0,33.769,12.512,33.769,27.891v420.2C679.843,614.636,664.7,627.148,646.074,627.148ZM247.048,157.828c-14.948,0-27.109,9.524-27.109,21.23v420.2c0,11.706,12.161,21.23,27.109,21.23H646.074c14.948,0,27.109-9.524,27.109-21.23v-420.2c0-11.706-12.161-21.23-27.109-21.23Z"/><path class="cls-8" d="M623.91,231.66v420.2c0,13.561-13.642,24.56-30.439,24.56H194.445c-16.815,0-30.439-11-30.439-24.56V231.66c0-13.561,13.624-24.56,30.439-24.56H593.471C610.268,207.1,623.91,218.1,623.91,231.66Z"/><path class="cls-10" d="M623.91,231.75V279.8h-459.9V231.733A24.634,24.634,0,0,1,188.639,207.1H599.26A24.65,24.65,0,0,1,623.91,231.75Z"/><circle class="cls-11" cx="200.034" cy="242.261" r="8.83"/><circle class="cls-12" cx="224.833" cy="242.261" r="8.83"/><circle class="cls-8" cx="249.631" cy="242.261" r="8.83"/><rect class="cls-11" x="251.117" y="370.039" width="64.929" height="10.679"/><rect class="cls-10" x="329.567" y="370.039" width="40.244" height="10.679"/><rect class="cls-5" x="385.185" y="370.039" width="40.244" height="10.679"/><rect class="cls-10" x="438.983" y="370.039" width="47.801" height="10.679"/><rect class="cls-5" x="496.739" y="370.039" width="29.628" height="10.679"/><rect class="cls-2" x="438.983" y="536.13" width="47.801" height="10.679"/><rect class="cls-11" x="496.739" y="536.13" width="29.628" height="10.679"/><rect class="cls-10" x="375.501" y="411.562" width="47.801" height="10.679"/><rect class="cls-5" x="433.256" y="411.562" width="29.628" height="10.679"/><rect class="cls-11" x="537.685" y="370.039" width="29.628" height="10.679"/><rect class="cls-11" x="251.117" y="328.318" width="342.497" height="11.076"/><rect class="cls-2" x="251.117" y="349.549" width="201.231" height="11.076"/><rect class="cls-2" x="251.117" y="453.085" width="64.929" height="10.679"/><rect class="cls-5" x="329.567" y="453.085" width="40.244" height="10.679"/><rect class="cls-10" x="385.185" y="453.085" width="40.244" height="10.679"/><rect class="cls-11" x="369.811" y="515.64" width="40.244" height="10.679"/><rect class="cls-5" x="425.429" y="515.64" width="40.244" height="10.679"/><rect class="cls-11" x="251.117" y="411.364" width="111.797" height="11.076"/><rect class="cls-2" x="251.117" y="432.594" width="266.223" height="11.076"/><rect class="cls-2" x="251.117" y="536.13" width="64.929" height="10.679"/><rect class="cls-5" x="329.567" y="536.13" width="40.244" height="10.679"/><rect class="cls-5" x="385.185" y="536.13" width="40.244" height="10.679"/><rect class="cls-10" x="251.117" y="494.409" width="271.765" height="11.076"/><rect class="cls-2" x="251.117" y="515.64" width="108.415" height="11.076"/><rect class="cls-2" x="251.117" y="619.176" width="64.929" height="10.679"/><rect class="cls-11" x="195.881" y="328.516" width="40.244" height="10.679"/><rect class="cls-11" x="195.881" y="411.562" width="40.244" height="10.679"/><rect class="cls-10" x="195.881" y="494.608" width="40.244" height="10.679"/><rect class="cls-5" x="195.881" y="577.653" width="40.244" height="10.679"/><rect class="cls-11" x="385.185" y="619.176" width="40.244" height="10.679"/><rect class="cls-10" x="329.567" y="619.176" width="40.244" height="10.679"/><rect class="cls-5" x="251.117" y="577.455" width="342.497" height="11.076"/><rect class="cls-10" x="251.117" y="598.686" width="201.231" height="11.076"/><path class="cls-10" d="M258.829,701.053H116.056a63.437,63.437,0,0,1-63.364-63.365,64.487,64.487,0,0,1,18.037-44.753c11.317-11.828,26.469-18.612,41.57-18.612h51.344a3.33,3.33,0,1,1,0,6.66H112.3c-28.205,0-52.947,26.5-52.947,56.705a56.769,56.769,0,0,0,56.7,56.705H258.829a3.33,3.33,0,1,1,0,6.66Z"/><circle class="cls-10" cx="318.716" cy="697.723" r="7.672"/><circle class="cls-10" cx="296.771" cy="697.723" r="7.672"/><circle class="cls-10" cx="274.827" cy="697.723" r="7.672"/></g><g id="Popup_1" data-name="Popup 1"><path class="cls-10" d="M1534.591,740.275H1082.752a18.053,18.053,0,0,1-18.033-18.033V394.607a18.053,18.053,0,0,1,18.033-18.033h451.839a18.053,18.053,0,0,1,18.033,18.033V722.242A18.053,18.053,0,0,1,1534.591,740.275ZM1082.752,383.234a11.386,11.386,0,0,0-11.373,11.373V722.242a11.386,11.386,0,0,0,11.373,11.373h451.839a11.386,11.386,0,0,0,11.373-11.373V394.607a11.386,11.386,0,0,0-11.373-11.373Z"/><path class="cls-12" d="M1582.6,427.91V755.545a14.707,14.707,0,0,1-14.7,14.7H1116.055a14.708,14.708,0,0,1-14.7-14.7V427.91a14.707,14.707,0,0,1,14.7-14.7h451.839A14.707,14.707,0,0,1,1582.6,427.91Z"/><rect class="cls-5" x="1121.834" y="486.132" width="154.488" height="120.547" rx="29.259"/><path d="M1140.137,551v-8.1l39.639-20.86v8.875l-19.522,9.626-12.332,6.16v.494l12.332,6.16,19.522,9.626v8.875Z"/><path d="M1208.669,504.3h5.489l-24.668,84.21H1184Z"/><path d="M1218.379,563.539l19.523-9.626,12.332-6.16v-.494L1237.9,541.1l-19.523-9.626V522.6l39.64,20.86v8.1l-39.64,20.861Z"/><path class="cls-2" d="M1582.6,427.91v40.963H1101.351V427.91a14.707,14.707,0,0,1,14.7-14.7h451.839A14.707,14.707,0,0,1,1582.6,427.91Z"/><circle class="cls-5" cx="1130.13" cy="440.508" r="8.296"/><circle class="cls-5" cx="1159.032" cy="440.508" r="8.296"/><circle class="cls-5" cx="1187.935" cy="440.508" r="8.296"/><rect class="cls-5" x="1303.689" y="486.132" width="83.049" height="17.127"/><rect class="cls-11" x="1404.033" y="486.132" width="51.475" height="17.127"/><rect class="cls-2" x="1475.173" y="486.132" width="51.475" height="17.127"/><rect class="cls-2" x="1303.689" y="574.6" width="83.049" height="17.127"/><rect class="cls-2" x="1404.033" y="574.6" width="51.475" height="17.127"/><rect class="cls-11" x="1475.173" y="574.6" width="51.475" height="17.127"/><rect class="cls-2" x="1121.834" y="673.794" width="83.049" height="17.127"/><rect class="cls-5" x="1222.178" y="673.794" width="51.475" height="17.127"/><rect class="cls-5" x="1293.319" y="673.794" width="51.475" height="17.127"/><rect class="cls-2" x="1121.834" y="717.258" width="438.084" height="11.076"/><rect class="cls-5" x="1121.834" y="738.489" width="257.392" height="11.076"/><rect class="cls-5" x="1121.834" y="618.546" width="438.084" height="11.076"/><rect class="cls-2" x="1121.834" y="639.777" width="257.392" height="11.076"/><rect class="cls-2" x="1303.689" y="522.108" width="257.392" height="11.076"/><rect class="cls-5" x="1303.689" y="543.339" width="151.228" height="11.076"/><path class="cls-10" d="M1633.944,758.1H1491.172a3.331,3.331,0,0,1,0-6.661h142.772a56.7,56.7,0,0,0,0-113.409H1582.6a3.33,3.33,0,1,1,0-6.66h51.345a63.365,63.365,0,0,1,0,126.73Z"/><circle class="cls-10" cx="1431.285" cy="754.769" r="7.672"/><circle class="cls-10" cx="1453.229" cy="754.769" r="7.672"/><circle class="cls-10" cx="1475.173" cy="754.769" r="7.672"/></g><g id="Book"><path class="cls-11" d="M1090.254,1207.406H1387a41.5,41.5,0,0,0,41.494-41.495h0A41.494,41.494,0,0,0,1387,1124.417H1090.254Z"/><path class="cls-5" d="M1120.776,1135.268H1416.52a0,0,0,0,1,0,0v61.288a0,0,0,0,1,0,0H1120.776a30.522,30.522,0,0,1-30.522-30.522v-.243A30.522,30.522,0,0,1,1120.776,1135.268Z" transform="translate(2506.774 2331.823) rotate(180)"/><rect class="cls-8" x="1090.253" y="1147.131" width="321.203" height="4.052"/><rect class="cls-8" x="1090.253" y="1184.024" width="318.779" height="4.052"/><rect class="cls-8" x="1090.253" y="1163.886" width="326.267" height="4.052"/><path class="cls-12" d="M1159.863,1059.709h231.374a0,0,0,0,1,0,0v64.707a0,0,0,0,1,0,0H1159.863a32.354,32.354,0,0,1-32.354-32.354v0a32.354,32.354,0,0,1,32.354-32.354Z" transform="translate(2518.747 2184.126) rotate(-180)"/><path class="cls-5" d="M1151.308,1068.17H1381.9a0,0,0,0,1,0,0v47.786a0,0,0,0,1,0,0H1151.308a23.8,23.8,0,0,1-23.8-23.8v-.19A23.8,23.8,0,0,1,1151.308,1068.17Z" transform="translate(2509.411 2184.126) rotate(180)"/><rect class="cls-8" x="1127.51" y="1076.974" width="250.443" height="4.052"/><rect class="cls-8" x="1127.51" y="1105.739" width="248.553" height="4.052"/><rect class="cls-8" x="1127.51" y="1090.037" width="254.391" height="4.052"/></g><g id="Laptop"><path class="cls-12" d="M976.394,1211.027H671.058a16.99,16.99,0,0,1-16.9-15.212l-22.148-210.59a16.989,16.989,0,0,1,16.9-18.766H998.542a16.989,16.989,0,0,1,16.9,18.766l-22.148,210.59A16.989,16.989,0,0,1,976.394,1211.027Z"/><circle class="cls-5" cx="824.101" cy="1090.497" r="40.772"/></g><g id="Flower"><rect class="cls-13" x="357.421" y="808.899" width="11.048" height="153.163"/><path class="cls-11" d="M345.283,757.339s17.348-46.463,35.37,0C380.653,757.339,362.264,790.758,345.283,757.339Z"/><path class="cls-11" d="M338.5,753.428a8.932,8.932,0,0,0-13.25,7.672,95.957,95.957,0,0,0,7.546,38.713c3.858,9.032,14.481,33.9,30.094,33.945s26.391-24.821,30.158-33.521a94.943,94.943,0,0,0,7.637-39.208,8.844,8.844,0,0,0-12.88-7.8,52.11,52.11,0,0,1-49.305.2Z"/><path class="cls-10" d="M422.952,1157.578l-16.959,47.95a2.484,2.484,0,0,1-2.265,1.878H322.135a2.24,2.24,0,0,1-1.492-.608,2.93,2.93,0,0,1-.773-1.27l-16.959-48.061c-15.8-44.747-15.8-95.956-.056-140.758l.056-.11a215.466,215.466,0,0,0,9.28-103.3v-.055c-.275-1.989.885-3.757,2.43-3.757h96.51c1.546,0,2.762,1.768,2.43,3.757-.387,2.6-.717,5.193-1.049,7.789a223.578,223.578,0,0,0-1.436,25.08,213.493,213.493,0,0,0,11.876,70.545A215.414,215.414,0,0,1,422.952,1157.578Z"/><ellipse class="cls-5" cx="362.968" cy="1081.043" rx="30.581" ry="55.44"/></g></g></svg>